<?xml version="1.0" standalone="no"?>
<!DOCTYPE svg PUBLIC "-//W3C//DTD SVG 20010904//EN"
 "http://www.w3.org/TR/2001/REC-SVG-20010904/DTD/svg10.dtd">
<svg version="1.0" xmlns="http://www.w3.org/2000/svg"
 width="821.000000pt" height="1232.000000pt" viewBox="0 0 821.000000 1232.000000"
 preserveAspectRatio="xMidYMid meet">
<metadata>
Created by potrace 1.15, written by Peter Selinger 2001-2017
</metadata>
<g transform="translate(0.000000,1232.000000) scale(0.100000,-0.100000)"
fill="#000000" stroke="none">
<path d="M2515 7917 c-169 -43 -294 -189 -303 -352 -13 -247 205 -447 440
-405 320 58 439 452 203 669 -89 81 -227 117 -340 88z m227 -32 c120 -47 207
-163 220 -290 3 -30 3 -30 -57 -36 l-60 -6 63 -1 c57 -2 62 -4 62 -24 0 -75
-57 -193 -121 -253 -119 -111 -298 -137 -429 -62 -45 26 -116 93 -142 136 -23
37 -22 40 45 68 20 8 37 19 37 24 0 9 -32 -1 -79 -25 -28 -15 -29 -15 -42 17
-9 19 -14 66 -13 117 1 107 30 178 103 249 117 114 266 145 413 86z"/>
<path d="M2510 7671 c-18 -34 -12 -80 15 -106 29 -30 45 -31 76 -7 27 23 30
69 5 106 -21 33 -79 37 -96 7z"/>
<path d="M2642 7564 c-50 -35 -15 -104 53 -104 44 0 75 25 75 60 0 35 -31 60
-75 60 -17 0 -41 -7 -53 -16z"/>
<path d="M2461 7494 c-28 -35 -27 -87 1 -114 27 -25 39 -25 72 1 21 16 26 29
26 64 0 74 -57 102 -99 49z"/>
<path d="M4461 7373 c-1 -23 -3 -23 -127 -23 -96 0 -125 -3 -121 -12 2 -7 9
-12 15 -11 6 2 9 -4 5 -12 -4 -12 -8 -13 -19 -4 -8 7 -18 8 -22 4 -4 -4 -1
-10 6 -12 6 -3 10 -9 6 -14 -3 -5 2 -9 11 -9 24 0 30 -29 9 -44 -17 -13 -18
-35 -18 -307 l-1 -294 58 -9 c31 -4 82 -5 112 -1 l55 6 0 78 c0 43 -3 139 -7
215 -5 118 -8 136 -22 134 -9 -2 -16 -12 -16 -22 0 -12 -8 -20 -23 -22 -19 -3
-22 1 -22 30 0 39 14 53 35 36 9 -8 15 -8 20 0 3 6 11 8 16 5 5 -4 9 24 9 66
0 52 -4 77 -16 90 -17 19 -12 39 11 39 23 0 57 57 52 87 -3 23 -4 24 -6 6z"/>
<path d="M3738 7374 c-11 -19 33 -85 65 -97 21 -8 22 -33 1 -41 -13 -5 -14 -9
-4 -21 9 -10 9 -15 1 -15 -8 0 -11 -71 -11 -248 l0 -248 80 -10 c44 -5 80 -6
80 -2 0 5 7 8 16 8 8 0 13 -4 10 -9 -7 -10 19 -23 28 -14 3 4 6 128 6 277 0
260 -1 272 -20 284 -27 16 -25 31 4 42 14 5 30 18 36 30 13 24 7 26 -15 4 -9
-9 -19 -13 -23 -9 -4 4 4 15 17 26 23 19 23 19 -108 19 -98 0 -131 -3 -132
-12 0 -7 -6 0 -13 16 -7 16 -15 25 -18 20z"/>
<path d="M3620 6781 c0 -94 1 -99 20 -94 15 4 20 14 20 39 0 20 -5 34 -12 34
-9 0 -10 2 -2 8 7 4 13 16 15 26 4 17 60 44 57 28 0 -4 0 -21 1 -39 1 -26 4
-30 21 -26 17 5 20 14 20 64 l0 59 -70 0 -70 0 0 -99z"/>
<path d="M4040 6770 c0 -103 1 -110 20 -110 18 0 20 7 20 80 0 78 1 80 24 80
31 0 36 -15 36 -106 0 -67 2 -74 20 -74 19 0 20 7 20 120 l0 120 -70 0 -70 0
0 -110z"/>
<path d="M4450 6761 c0 -66 4 -122 8 -125 23 -14 34 15 35 95 l2 84 32 1 c42
0 78 25 70 47 -5 14 -20 17 -77 17 l-70 0 0 -119z"/>
<path d="M3125 6510 c4 -7 343 -10 985 -10 642 0 981 3 985 10 4 7 -327 10
-985 10 -658 0 -989 -3 -985 -10z"/>
<path d="M3142 6434 c-25 -17 -29 -56 -7 -74 8 -7 29 -15 47 -19 17 -4 33 -12
36 -19 7 -21 -29 -26 -58 -8 -35 20 -50 4 -24 -25 37 -41 124 -15 124 38 0 26
-16 39 -57 48 -38 8 -52 23 -32 36 19 12 25 11 44 -7 16 -16 45 -13 45 5 0 16
-43 41 -70 41 -14 0 -36 -7 -48 -16z"/>
<path d="M3288 6383 c-2 -38 -2 -78 0 -90 5 -32 30 -29 34 5 2 22 9 28 33 30
40 5 65 29 65 63 0 37 -33 59 -86 59 l-42 0 -4 -67z"/>
<path d="M3444 6437 c-3 -8 -4 -47 -2 -88 l3 -74 63 -3 c50 -2 62 0 62 12 0
10 -13 16 -42 18 -31 2 -44 8 -46 20 -2 13 5 17 35 20 52 4 53 32 1 36 -54 5
-51 30 4 34 31 2 44 8 46 21 3 15 -5 17 -58 17 -41 0 -62 -4 -66 -13z"/>
<path d="M3830 6360 c0 -83 1 -90 20 -90 16 0 20 7 20 35 0 33 2 35 35 35 33
0 35 -2 35 -36 0 -28 3 -35 18 -32 15 3 17 15 17 88 0 72 -3 85 -17 88 -13 2
-17 -5 -20 -34 -3 -35 -6 -38 -33 -38 -27 0 -30 3 -33 37 -3 29 -7 37 -23 37
-17 0 -19 -8 -19 -90z"/>
<path d="M4010 6360 l0 -90 60 0 c47 0 60 3 60 15 0 11 -11 15 -40 15 -33 0
-40 3 -40 20 0 16 7 20 36 20 28 0 35 3 32 18 -2 9 -12 18 -23 18 -11 1 -27 2
-36 3 -9 1 -16 8 -16 16 0 11 12 15 44 15 36 0 43 3 43 20 0 18 -7 20 -60 20
l-60 0 0 -90z"/>
<path d="M4160 6360 c0 -83 1 -90 20 -90 16 0 20 7 20 30 0 38 16 38 38 0 27
-47 68 -38 42 10 -7 13 -5 26 5 47 20 37 19 49 -5 73 -15 15 -33 20 -70 20
l-50 0 0 -90z"/>
<path d="M4337 6432 c-35 -39 -15 -79 46 -91 18 -4 32 -13 32 -21 0 -20 -39
-24 -54 -6 -7 8 -19 12 -27 9 -36 -14 5 -53 55 -53 83 0 96 82 17 104 -46 13
-57 31 -25 41 15 5 26 2 34 -9 15 -20 45 -21 45 -2 0 41 -93 61 -123 28z"/>
<path d="M4666 6441 c-3 -5 -15 -39 -27 -76 -11 -37 -23 -74 -26 -81 -3 -9 2
-14 15 -14 11 0 22 8 25 20 4 14 14 20 35 20 22 0 32 -6 37 -20 7 -22 45 -28
44 -7 0 6 -12 46 -27 87 -21 59 -32 76 -49 78 -11 2 -24 -1 -27 -7z"/>
<path d="M4794 6437 c-3 -8 -4 -47 -2 -88 l3 -74 50 -3 c69 -4 95 20 95 86 0
53 -5 64 -37 81 -30 16 -102 14 -109 -2z"/>
<path d="M3121 6205 c7 -6 1970 -7 1977 0 3 3 -442 5 -988 5 -546 0 -991 -2
-989 -5z"/>
<path d="M2795 4627 c-3 -7 -5 -47 -3 -88 2 -61 6 -74 21 -77 14 -3 17 4 17
32 0 34 2 36 35 36 34 0 35 -1 35 -41 0 -33 3 -40 18 -37 14 3 17 17 20 91 3
82 2 87 -18 87 -16 0 -20 -6 -20 -35 0 -36 -6 -40 -47 -29 -15 4 -23 15 -25
37 -3 33 -24 48 -33 24z"/>
<path d="M5328 4633 c-3 -4 -4 -46 -4 -93 1 -69 4 -85 16 -85 11 0 16 16 20
62 l5 62 35 -59 c26 -45 41 -60 58 -60 21 0 22 3 22 90 0 73 -3 90 -15 90 -15
0 -18 -12 -18 -77 0 -18 -2 -33 -6 -33 -3 0 -20 24 -36 53 -29 48 -66 72 -77
50z"/>
<path d="M3024 4583 c-9 -21 -24 -58 -35 -82 -23 -53 -23 -51 -3 -51 9 0 23 9
33 21 20 25 65 18 82 -12 11 -21 42 -26 37 -6 -2 6 -17 47 -33 89 -35 91 -57
101 -81 41z"/>
<path d="M3180 4530 c0 -73 3 -90 15 -90 12 0 15 15 16 68 l1 67 21 -62 c30
-85 43 -96 61 -52 8 19 18 47 22 63 9 39 17 25 18 -36 1 -42 5 -53 19 -56 16
-3 18 5 15 89 -2 76 -6 93 -19 94 -25 4 -33 -6 -56 -65 l-20 -55 -23 63 c-19
52 -26 62 -46 62 -23 0 -24 -2 -24 -90z"/>
<path d="M4873 4608 c-10 -12 -59 -124 -70 -160 -4 -13 0 -18 15 -18 11 0 22
8 25 20 7 26 71 29 85 3 12 -20 42 -26 42 -9 0 20 -68 170 -78 174 -5 1 -14
-3 -19 -10z"/>
<path d="M3420 4520 l0 -90 53 0 c29 0 58 5 65 12 15 15 16 50 2 64 -7 7 -8
19 -1 38 15 39 -15 66 -74 66 l-45 0 0 -90z"/>
<path d="M4023 4603 c-34 -6 -63 -50 -63 -93 0 -72 62 -114 134 -90 32 10 34
13 32 58 -1 45 -2 47 -32 50 -38 4 -58 -26 -24 -35 11 -3 20 -14 20 -25 0 -16
-6 -19 -37 -16 -31 2 -41 9 -52 32 -12 26 -12 33 1 55 12 22 21 26 63 26 57 0
70 18 24 34 -18 6 -35 10 -38 10 -3 -1 -16 -4 -28 -6z"/>
<path d="M3790 4510 c0 -83 1 -90 20 -90 17 0 20 7 20 40 0 22 4 40 8 40 5 0
17 -18 27 -40 14 -31 24 -40 42 -40 l25 0 -22 35 c-21 33 -21 37 -6 54 19 21
21 62 4 79 -7 7 -36 12 -65 12 l-53 0 0 -90z"/>
<path d="M4350 4510 c0 -73 3 -90 15 -90 10 0 15 10 15 34 0 50 16 53 40 6 13
-26 27 -40 40 -40 25 0 25 1 0 43 l-20 34 20 18 c45 41 14 85 -61 85 l-49 0 0
-90z"/>
</g>
</svg>
