<svg xmlns="http://www.w3.org/2000/svg" width="77.001" height="78" viewBox="0 0 77.001 78">
  <g id="logo_new" data-name="logo new" transform="translate(-1 855.326)">
    <path id="Path_2152" data-name="Path 2152" d="M226.96-855.323a19.036,19.036,0,0,0-2.959.347,1.236,1.236,0,0,1-.521.082c-.046-.027-.082-.009-.082.027s-.192.128-.429.192a13.006,13.006,0,0,0-3.224,1.7,14.169,14.169,0,0,0-5.5,10.229,29.18,29.18,0,0,0,.146,5.169c.941,5.6,4.512,9.708,9.5,10.95l.621.155.018.84.009.84-1.964.018-1.964.027-.027,1.169-.027,1.16,13.407-.018,13.407-.027v-5.023l-1.717-.027-1.717-.018.027,1.37.027,1.37H228.056v-1.333l.585-.119a1.843,1.843,0,0,1,.685-.055.237.237,0,0,0,.219-.018,5.284,5.284,0,0,1,.84-.219c1.964-.4,3.525-1.306,5.79-3.343l.813-.74-.192-.183c-.32-.283-1.881-1.48-1.936-1.48a8.185,8.185,0,0,0-.8.758,8.707,8.707,0,0,1-5.462,2.859l-.539.055v-16.823h4.475v-2.375H220.567v2.375h2.018c1.808,0,2.009.018,1.964.146-.027.082-.055,3.781-.055,8.229v8.083l-.292-.064a1.8,1.8,0,0,1-.5-.192c-.119-.073-.21-.11-.21-.082a4.8,4.8,0,0,1-1.2-.612c-.027-.046-.073-.073-.1-.055a7.326,7.326,0,0,1-1.808-1.416,11.756,11.756,0,0,1-3.078-6.274,27.287,27.287,0,0,1,.009-6.165,16.309,16.309,0,0,1,1.16-3.617,10.627,10.627,0,0,1,4.831-4.786,8.4,8.4,0,0,1,4.092-.658,7.041,7.041,0,0,1,3.169.694c1.982.932,2.968,2.311,2.968,4.165v.5h2.649v-7.4h-2.649v1.836l-.521-.356a11.96,11.96,0,0,0-2.493-1.242c-.274-.091-.566-.183-.639-.21s-.183-.064-.247-.082-.311-.064-.575-.119a4.786,4.786,0,0,0-.822-.1,1.984,1.984,0,0,1-.566-.073A2.991,2.991,0,0,0,226.96-855.323Z" transform="translate(-193.721 0)" fill="#a76d60"/>
    <path id="Path_2153" data-name="Path 2153" d="M14.645-457.445a.959.959,0,0,1-.384.119,4.86,4.86,0,0,0-2.21,1.26,5.627,5.627,0,0,0-1.361,2.521,50.188,50.188,0,0,0,0,6.229c.046.575.11,1.26.128,1.525a2.364,2.364,0,0,0,.073.548,3.347,3.347,0,0,1,.11.53,30.388,30.388,0,0,0,5.872,13.745,31.975,31.975,0,0,0,5.27,5.361l.274.2-10.055.009c-6.987,0-10.147.027-10.32.091A1.692,1.692,0,0,0,1-423.827c.009.621.311,1,2.612,3.279A17.72,17.72,0,0,0,7.576-417.2a11.511,11.511,0,0,0,3.461,1.215.611.611,0,0,1,.311.055,1.267,1.267,0,0,0,.374.073c.393.027,52,.027,52.341,0,.155-.018.32-.037.365-.046a2.763,2.763,0,0,1,.32-.055,11.251,11.251,0,0,0,2.548-.8c1.617-.7,2.3-1.242,4.84-3.745,2.639-2.612,2.877-2.95,2.649-3.644a1.956,1.956,0,0,0-.968-1.123c-.237-.11-2.119-.128-10.366-.128l-10.074-.009.32-.247c.585-.466,1.781-1.516,2.53-2.238.566-.548.8-.712.941-.676.1.027.21.009.237-.046a.226.226,0,0,1,.228-.046c.1.027.174.009.174-.046s.073-.073.164-.055a.561.561,0,0,0,.256-.037,1.214,1.214,0,0,1,.411-.11,9.743,9.743,0,0,0,1.717-.42,4.105,4.105,0,0,1,1.023-.228c.046.036.082.018.082-.037s.137-.11.3-.146c.585-.128,2.868-.9,4.21-1.434,7.151-2.84,11.014-6.229,11.891-10.439a10.116,10.116,0,0,0-.977-6.21c-1.781-2.941-5.27-3.936-9.955-2.84-.329.082-.676.155-.776.174a.7.7,0,0,0-.265.082,1.589,1.589,0,0,1-.374.11l-.283.064-.055-1.671a5.667,5.667,0,0,0-.566-3,4.848,4.848,0,0,0-3.078-2.411c-.192-.037-.347-.091-.347-.128C61.186-457.518,14.69-457.518,14.645-457.445Zm46.45,3.388a1.517,1.517,0,0,1,.621.575l.21.365-.037,3.242a29.683,29.683,0,0,1-.228,4.448A27.217,27.217,0,0,1,48.692-426.11L47.5-425.4H28.3l-.749-.429a28.093,28.093,0,0,1-8.211-7.206,27.653,27.653,0,0,1-5.37-13.782c-.046-.557-.091-1.187-.091-1.416s-.018-1.288-.055-2.347a18.9,18.9,0,0,1,.009-2.1,1.6,1.6,0,0,0,.091-.42,1.6,1.6,0,0,1,.795-1c.274-.137,2.183-.155,23.134-.155H60.693Zm10.558,6.32a3.411,3.411,0,0,1,2.913,2.667,10.233,10.233,0,0,1,.137,2.877c-.612,3.279-4.786,6.357-11.873,8.777a22.2,22.2,0,0,1-2.7.785,2.516,2.516,0,0,1,.338-.575,30.614,30.614,0,0,0,3.7-8.494,30.776,30.776,0,0,0,.767-4.064.5.5,0,0,1,.082-.32c.046-.027.064-.183.037-.347l-.046-.3.722-.247a14.606,14.606,0,0,1,2.868-.648.237.237,0,0,0,.219-.055.462.462,0,0,1,.356-.055c.128.027.247.018.283-.037A8.95,8.95,0,0,1,71.652-447.737Zm-2.429,25.572a15.823,15.823,0,0,1-1.808,1.68,8.436,8.436,0,0,1-2.557,1.2.216.216,0,0,0-.11.009,2.118,2.118,0,0,1-.228.055c-.1.027-.283.073-.411.11s-11.635.073-25.572.091c-24.979.027-27.381,0-27.472-.256a.072.072,0,0,0-.119-.036A6.849,6.849,0,0,1,8.5-420.4a13.413,13.413,0,0,1-1.927-1.717c0-.046,12.32-.082,31.326-.082C55.131-422.2,69.223-422.183,69.223-422.165Z" transform="translate(0 -361.492)" fill="#a76d60"/>
  </g>
</svg>
