<svg xmlns="http://www.w3.org/2000/svg" width="61.124" height="60.65" viewBox="0 0 61.124 60.65">
  <path id="Path_2150" data-name="Path 2150" d="M21.212-311.443A22.926,22.926,0,0,0,4.164-298.984,30.291,30.291,0,0,0,1-284.807c0,10.819,4.257,19.138,12.147,23.746a25.473,25.473,0,0,0,5.878,2.343l1.113.234v3.261H12.912v4.3H62.124V-260.3H56.07v5.077H26.582v-2.714l1.133-.117a22.436,22.436,0,0,0,8.632-2.636,42.528,42.528,0,0,0,5.448-4.238l1.25-1.152-1.738-1.367c-.957-.762-1.836-1.445-1.972-1.523s-.9.527-1.914,1.543a16.277,16.277,0,0,1-9.8,5.077l-1.035.137V-293.5h8.2v-4.3H12.912v4.3h7.225v30.64l-1.015-.352C12.834-265.376,8.46-270.785,6.858-278.4a35.387,35.387,0,0,1,.508-14.822c1.992-6.913,6.893-12.108,12.869-13.67a22.559,22.559,0,0,1,8.788.078c4.648,1.347,7.362,4.14,7.655,7.909l.117,1.5h4.823v-13.67H36.737v3.515l-1.133-.781a19.3,19.3,0,0,0-10.487-3.222A28.712,28.712,0,0,0,21.212-311.443Z" transform="translate(-1 311.575)" fill="#a76d60"/>
</svg>
