<svg id="Flat" enable-background="new 0 0 512 512" height="512" viewBox="0 0 512 512" width="512" xmlns="http://www.w3.org/2000/svg"><g><g><g><g><path d="m18 72h476c5.523 0 10 4.477 10 10v262h-496v-262c0-5.523 4.477-10 10-10z" fill="#edf5d9"/></g><g><path d="m446 312h-380c-5.523 0-10-4.477-10-10v-268c0-5.523 4.477-10 10-10h380c5.523 0 10 4.477 10 10v268c0 5.523-4.477 10-10 10z" fill="#fffefa"/></g><g><path d="m200 400-3.2 16h118.4l-3.2-16z" fill="#a8cc55"/></g><g><g><path d="m312 400h-112l-16 80v8h144v-8z" fill="#c6e67f"/></g></g><g><path d="m200 400-3.2 16h118.4l-3.2-16z" fill="#a8cc54"/></g><g><path d="m504 344h-496v54c0 5.523 4.477 10 10 10h476c5.523 0 10-4.477 10-10z" fill="#c6e67f"/></g><g><path d="m224 368h64v16h-64z" fill="#fdfefc"/></g></g></g><g><g><g><path d="m456 72h-400v-38c0-5.523 4.477-10 10-10h380c5.523 0 10 4.477 10 10z" fill="#ffe68c"/></g><g><path d="m80 40h16v16h-16z" fill="#fffefa"/></g><g><path d="m112 40h16v16h-16z" fill="#fffefa"/></g><g><path d="m144 40h16v16h-16z" fill="#fffefa"/></g><g><path d="m400 40h32v16h-32z" fill="#fffefa"/></g></g><g><path d="m296 144c-3.024 0-5.95.42-8.723 1.204-3.117-14.409-15.936-25.204-31.277-25.204s-28.16 10.795-31.277 25.204c-2.773-.784-5.699-1.204-8.723-1.204-17.673 0-32 14.327-32 32s14.327 32 32 32v40h80v-40c17.673 0 32-14.327 32-32s-14.327-32-32-32z" fill="#ff7b85"/></g><g><path d="m424 160c0 26.51-14.327 56-32 56s-32-29.49-32-56 14.327-48 32-48 32 21.49 32 48z" fill="#ffdc5c"/></g><g><path d="m200 272h16v16h-16z" fill="#ffdc5c"/></g><g><path d="m248 272h16v16h-16z" fill="#ffdc5c"/></g><g><path d="m296 272h16v16h-16z" fill="#ffdc5c"/></g><g fill="#ffe68c"><path d="m424 160c0-26.51-14.327-48-32-48s-32 21.49-32 48c0 17.767 6.435 36.872 16 47.542v80.458h32v-80.458c9.565-10.67 16-29.775 16-47.542z"/><path d="m136 104v72h-8v-72h-16v72h-8v-72h-16v80l16 40v64h32v-64l16-40v-80z"/></g></g><g><g><path d="m144 472h224v16h-224z" fill="#a8cc54"/></g><g><path d="m384 472h16v16h-16z" fill="#a8cc54"/></g><g><path d="m112 472h16v16h-16z" fill="#a8cc54"/></g></g></g></svg>