<svg xmlns="http://www.w3.org/2000/svg" width="63" height="63" viewBox="0 0 63 63">
  <path id="shape" d="M81.5-38A31.511,31.511,0,0,0,50-6.5,31.511,31.511,0,0,0,81.5,25,31.511,31.511,0,0,0,113-6.5,31.511,31.511,0,0,0,81.5-38Zm0,9.45a9.437,9.437,0,0,1,9.45,9.45A9.437,9.437,0,0,1,81.5-9.65a9.437,9.437,0,0,1-9.45-9.45A9.437,9.437,0,0,1,81.5-28.55Zm0,44.73A22.682,22.682,0,0,1,62.6,6.037c.094-6.269,12.6-9.7,18.9-9.7,6.269,0,18.806,3.434,18.9,9.7A22.682,22.682,0,0,1,81.5,16.18Z" transform="translate(-50 38)" fill="#a76d60"/>
</svg>
