<svg xmlns="http://www.w3.org/2000/svg" width="42.795" height="41" viewBox="0 0 42.795 41">
  <path id="Path_17" data-name="Path 17" d="M41.865,19.628a3.069,3.069,0,0,0-1.7-5.235L29.8,12.887a1.353,1.353,0,0,1-1.02-.741L24.149,2.757a3.069,3.069,0,0,0-5.5,0l-4.633,9.389a1.355,1.355,0,0,1-1.021.741L2.63,14.393a3.069,3.069,0,0,0-1.7,5.235l7.5,7.308a1.357,1.357,0,0,1,.391,1.2L7.047,38.455a3,3,0,0,0,.669,2.488,3.1,3.1,0,0,0,3.783.746l9.267-4.872a1.387,1.387,0,0,1,1.261,0L31.3,41.69a3.037,3.037,0,0,0,1.428.357,3.077,3.077,0,0,0,2.355-1.1,3,3,0,0,0,.669-2.488l-1.77-10.319a1.356,1.356,0,0,1,.391-1.2Z" transform="translate(0.001 -1.047)" fill="#a76d60"/>
</svg>
