<svg xmlns="http://www.w3.org/2000/svg" width="36.5" height="36.5" viewBox="0 0 36.5 36.5">
  <g id="search" transform="translate(0 -0.003)">
    <g id="Group_3" data-name="Group 3" transform="translate(0 0.003)">
      <path id="Path_10" data-name="Path 10" d="M35.689,31.721,28.165,24.2a15.022,15.022,0,0,0,2.72-8.752,15.169,15.169,0,0,0-1.218-6,15.123,15.123,0,0,0-8.225-8.226,15.39,15.39,0,0,0-12,0A15.123,15.123,0,0,0,1.217,9.446a15.39,15.39,0,0,0,0,12,15.127,15.127,0,0,0,8.226,8.226,15.176,15.176,0,0,0,6,1.217,15.023,15.023,0,0,0,8.753-2.72l7.524,7.5a2.606,2.606,0,0,0,1.974.834,2.807,2.807,0,0,0,2-4.782Zm-13.3-9.334a9.463,9.463,0,0,1-6.943,2.885A9.464,9.464,0,0,1,8.5,22.388a9.463,9.463,0,0,1-2.885-6.942A9.464,9.464,0,0,1,8.5,8.5a9.463,9.463,0,0,1,6.942-2.885A9.466,9.466,0,0,1,22.385,8.5a9.463,9.463,0,0,1,2.885,6.942A9.464,9.464,0,0,1,22.385,22.388Z" transform="translate(0 -0.003)" fill="#a76d60"/>
    </g>
  </g>
</svg>
