<svg id="shopping-cart" xmlns="http://www.w3.org/2000/svg" width="258" height="258" viewBox="0 0 258 258">
  <g id="Group_55" data-name="Group 55">
    <g id="shopping-cart-2" data-name="shopping-cart">
      <path id="Path_2151" data-name="Path 2151" d="M77.4,206.4a25.8,25.8,0,1,0,25.8,25.8A25.876,25.876,0,0,0,77.4,206.4ZM0,0V25.8H25.8l46.44,98.04L54.18,154.8c-1.29,3.87-2.58,9.03-2.58,12.9a25.876,25.876,0,0,0,25.8,25.8H232.2V167.7H82.56a2.775,2.775,0,0,1-2.58-2.58v-1.291L91.59,141.9h95.46c10.32,0,18.06-5.16,21.93-12.9L255.42,45.15C258,42.57,258,41.28,258,38.7c0-7.74-5.16-12.9-12.9-12.9H54.18L42.57,0ZM206.4,206.4a25.8,25.8,0,1,0,25.8,25.8A25.876,25.876,0,0,0,206.4,206.4Z" fill="#fff"/>
    </g>
  </g>
</svg>
