<svg xmlns="http://www.w3.org/2000/svg" width="164.43" height="249.257" viewBox="0 0 164.43 249.257">
  <g id="survey" transform="translate(-79.687 0)">
    <path id="Path_2087" data-name="Path 2087" d="M240.794,276.821H83.01a3.324,3.324,0,0,1-3.323-3.323V62.253A3.323,3.323,0,0,1,83.01,58.93H240.794a3.323,3.323,0,0,1,3.323,3.323V273.5A3.323,3.323,0,0,1,240.794,276.821Z" transform="translate(0 -27.565)" fill="#44c4a1"/>
    <rect id="Rectangle_56" data-name="Rectangle 56" width="143.334" height="196.806" transform="translate(90.252 41.908)" fill="#e1e6e9"/>
    <path id="Path_2088" data-name="Path 2088" d="M239.912,51.467H145.065a29.29,29.29,0,0,1,.864-4.819A32.883,32.883,0,0,1,177.8,21.856h.632V14.08A14.072,14.072,0,0,1,193.751.055c7.378.665,12.8,7.311,12.8,14.755v7.045h.6a32.922,32.922,0,0,1,31.9,24.792A29.3,29.3,0,0,1,239.912,51.467Z" transform="translate(-30.581 0)" fill="#27a2db"/>
    <circle id="Ellipse_10" data-name="Ellipse 10" cx="7.853" cy="7.853" r="7.853" transform="translate(154.049 5.634)" fill="#e1e6e9"/>
    <path id="Path_2089" data-name="Path 2089" d="M239.912,92.463H145.065a29.29,29.29,0,0,1,.864-4.819h93.119A29.232,29.232,0,0,1,239.912,92.463Z" transform="translate(-30.581 -40.996)" fill="#2d93ba"/>
    <g id="Group_13" data-name="Group 13" transform="translate(101.653 71.196)">
      <path id="Path_2090" data-name="Path 2090" d="M127.262,153.005a2.95,2.95,0,0,1-.557-.054,2.869,2.869,0,0,1-2.041-1.607l-3.44-7.413a2.865,2.865,0,1,1,5.2-2.413l1.822,3.926c7.715-6.538,14.959-10.26,22.571-11.636a2.866,2.866,0,0,1,1.02,5.64c-7.446,1.345-14.635,5.409-22.627,12.8A2.861,2.861,0,0,1,127.262,153.005Z" transform="translate(-120.957 -133.766)" fill="#e56353"/>
      <path id="Path_2091" data-name="Path 2091" d="M127.262,233.511a2.95,2.95,0,0,1-.557-.054,2.869,2.869,0,0,1-2.041-1.607l-3.44-7.413a2.865,2.865,0,1,1,5.2-2.413l1.822,3.926c7.715-6.538,14.959-10.26,22.571-11.636a2.866,2.866,0,0,1,1.02,5.64c-7.446,1.345-14.635,5.409-22.627,12.8A2.861,2.861,0,0,1,127.262,233.511Z" transform="translate(-120.957 -171.423)" fill="#e56353"/>
      <path id="Path_2092" data-name="Path 2092" d="M127.262,314.018a2.951,2.951,0,0,1-.557-.054,2.869,2.869,0,0,1-2.041-1.607l-3.44-7.413a2.864,2.864,0,1,1,5.2-2.412l1.822,3.926c7.715-6.538,14.959-10.26,22.571-11.636a2.866,2.866,0,1,1,1.02,5.64c-7.446,1.345-14.635,5.409-22.627,12.8A2.863,2.863,0,0,1,127.262,314.018Z" transform="translate(-120.957 -209.08)" fill="#e56353"/>
      <path id="Path_2093" data-name="Path 2093" d="M127.262,394.523a2.949,2.949,0,0,1-.557-.054,2.869,2.869,0,0,1-2.041-1.607l-3.44-7.413a2.865,2.865,0,1,1,5.2-2.413l1.822,3.926c7.715-6.538,14.959-10.26,22.571-11.636a2.866,2.866,0,0,1,1.02,5.64c-7.446,1.345-14.635,5.409-22.627,12.8A2.863,2.863,0,0,1,127.262,394.523Z" transform="translate(-120.957 -246.736)" fill="#e56353"/>
    </g>
    <g id="Group_14" data-name="Group 14" transform="translate(146.316 71.196)">
      <rect id="Rectangle_57" data-name="Rectangle 57" width="75.844" height="6.647" fill="#d5d6db"/>
      <rect id="Rectangle_58" data-name="Rectangle 58" width="75.844" height="6.647" transform="translate(0 42.851)" fill="#d5d6db"/>
      <rect id="Rectangle_59" data-name="Rectangle 59" width="75.844" height="6.647" transform="translate(0 85.698)" fill="#d5d6db"/>
      <rect id="Rectangle_60" data-name="Rectangle 60" width="75.844" height="6.647" transform="translate(0 128.538)" fill="#d5d6db"/>
    </g>
  </g>
</svg>
