<?xml version="1.0" encoding="iso-8859-1"?>
<!-- Generator: Adobe Illustrator 19.0.0, SVG Export Plug-In . SVG Version: 6.00 Build 0)  -->
<svg version="1.1" id="Capa_1" xmlns="http://www.w3.org/2000/svg" xmlns:xlink="http://www.w3.org/1999/xlink" x="0px" y="0px"
	 viewBox="0 0 468.31 468.31" style="enable-background:new 0 0 468.31 468.31;" xml:space="preserve">
<path style="fill:#44C4A1;" d="M382.379,468.31H85.931c-3.448,0-6.244-2.796-6.244-6.244V65.174c0-3.448,2.795-6.244,6.244-6.244
	h296.448c3.448,0,6.244,2.795,6.244,6.244v396.892C388.623,465.515,385.828,468.31,382.379,468.31z"/>
<rect x="99.537" y="78.738" style="fill:#E1E6E9;" width="269.299" height="369.764"/>
<path style="fill:#27A2DB;" d="M323.266,96.698H145.065c0.313-3.06,0.811-6.12,1.623-9.054c6.681-26.724,31.032-46.58,59.879-46.58
	h1.187v-14.61c0-15.361,13.111-27.723,28.784-26.35c13.862,1.249,24.04,13.737,24.04,27.723v13.236h1.123
	c28.91,0,53.198,19.856,59.942,46.58C322.454,90.578,322.954,93.638,323.266,96.698z"/>
<circle style="fill:#E1E6E9;" cx="234.155" cy="25.34" r="14.754"/>
<path style="fill:#2D93BA;" d="M323.266,96.698H145.065c0.313-3.06,0.811-6.12,1.623-9.054h174.954
	C322.454,90.578,322.954,93.638,323.266,96.698z"/>
<g>
	<path style="fill:#E56353;" d="M132.804,169.914c-0.349,0-0.698-0.034-1.047-0.101c-1.686-0.336-3.112-1.459-3.835-3.019
		l-6.463-13.927c-1.253-2.7-0.08-5.9,2.615-7.148c2.704-1.261,5.9-0.08,7.148,2.615l3.423,7.376
		c14.495-12.283,28.106-19.276,42.407-21.862c2.935-0.513,5.727,1.421,6.257,4.34c0.526,2.927-1.417,5.727-4.34,6.257
		c-13.99,2.527-27.496,10.163-42.512,24.04C135.453,169.414,134.146,169.914,132.804,169.914z"/>
	<path style="fill:#E56353;" d="M132.804,250.42c-0.349,0-0.698-0.034-1.047-0.101c-1.686-0.336-3.112-1.459-3.835-3.019
		l-6.463-13.927c-1.253-2.7-0.08-5.9,2.615-7.148c2.704-1.261,5.9-0.08,7.148,2.615l3.423,7.376
		c14.495-12.283,28.106-19.276,42.407-21.862c2.935-0.513,5.727,1.421,6.257,4.34c0.526,2.927-1.417,5.727-4.34,6.257
		c-13.99,2.527-27.496,10.163-42.512,24.04C135.453,249.92,134.146,250.42,132.804,250.42z"/>
	<path style="fill:#E56353;" d="M132.804,330.926c-0.349,0-0.698-0.034-1.047-0.101c-1.686-0.336-3.112-1.459-3.835-3.019
		l-6.463-13.927c-1.253-2.7-0.08-5.9,2.615-7.148c2.704-1.261,5.9-0.08,7.148,2.616l3.423,7.376
		c14.495-12.283,28.106-19.276,42.407-21.862c2.935-0.513,5.727,1.421,6.257,4.34c0.526,2.927-1.417,5.727-4.34,6.257
		c-13.99,2.527-27.496,10.163-42.512,24.04C135.453,330.426,134.146,330.926,132.804,330.926z"/>
	<path style="fill:#E56353;" d="M132.804,411.432c-0.349,0-0.698-0.034-1.047-0.101c-1.686-0.336-3.112-1.459-3.835-3.019
		l-6.463-13.927c-1.253-2.7-0.08-5.9,2.615-7.148c2.704-1.262,5.9-0.08,7.148,2.615l3.423,7.376
		c14.495-12.283,28.106-19.276,42.407-21.862c2.935-0.513,5.727,1.421,6.257,4.34c0.526,2.927-1.417,5.727-4.34,6.257
		c-13.99,2.527-27.496,10.163-42.512,24.04C135.453,410.931,134.146,411.432,132.804,411.432z"/>
</g>
<g>
	<rect x="204.871" y="133.766" style="fill:#D5D6DB;" width="142.498" height="12.488"/>
	<rect x="204.871" y="214.275" style="fill:#D5D6DB;" width="142.498" height="12.488"/>
	<rect x="204.871" y="294.777" style="fill:#D5D6DB;" width="142.498" height="12.488"/>
	<rect x="204.871" y="375.267" style="fill:#D5D6DB;" width="142.498" height="12.488"/>
</g>
<g>
</g>
<g>
</g>
<g>
</g>
<g>
</g>
<g>
</g>
<g>
</g>
<g>
</g>
<g>
</g>
<g>
</g>
<g>
</g>
<g>
</g>
<g>
</g>
<g>
</g>
<g>
</g>
<g>
</g>
</svg>
